<mxfile host="app.diagrams.net" modified="2024-01-20T16:46:39.124Z" agent="Mozilla/5.0 (Windows NT 10.0; Win64; x64) AppleWebKit/537.36 (KHTML, like Gecko) Chrome/120.0.0.0 Safari/537.36" etag="1sVOFq-PDMUCchJrkPBZ" version="22.1.21" type="device">
  <diagram name="Page-1" id="2YBvvXClWsGukQMizWep">
    <mxGraphModel dx="1434" dy="746" grid="1" gridSize="10" guides="1" tooltips="1" connect="1" arrows="1" fold="1" page="1" pageScale="1" pageWidth="850" pageHeight="1100" math="0" shadow="0">
      <root>
        <mxCell id="0" />
        <mxCell id="1" parent="0" />
        <mxCell id="aM9ryv3xv72pqoxQDRHE-1" value="React Client" style="shape=umlLifeline;perimeter=lifelinePerimeter;whiteSpace=wrap;html=1;container=0;dropTarget=0;collapsible=0;recursiveResize=0;outlineConnect=0;portConstraint=eastwest;newEdgeStyle={&quot;edgeStyle&quot;:&quot;elbowEdgeStyle&quot;,&quot;elbow&quot;:&quot;vertical&quot;,&quot;curved&quot;:0,&quot;rounded&quot;:0};" parent="1" vertex="1">
          <mxGeometry x="160" y="40" width="100" height="880" as="geometry" />
        </mxCell>
        <mxCell id="aM9ryv3xv72pqoxQDRHE-2" value="" style="html=1;points=[];perimeter=orthogonalPerimeter;outlineConnect=0;targetShapes=umlLifeline;portConstraint=eastwest;newEdgeStyle={&quot;edgeStyle&quot;:&quot;elbowEdgeStyle&quot;,&quot;elbow&quot;:&quot;vertical&quot;,&quot;curved&quot;:0,&quot;rounded&quot;:0};" parent="aM9ryv3xv72pqoxQDRHE-1" vertex="1">
          <mxGeometry x="45" y="70" width="10" height="130" as="geometry" />
        </mxCell>
        <mxCell id="i7Q7dxlkTZV9pGj74JNQ-42" value="" style="html=1;points=[];perimeter=orthogonalPerimeter;outlineConnect=0;targetShapes=umlLifeline;portConstraint=eastwest;newEdgeStyle={&quot;edgeStyle&quot;:&quot;elbowEdgeStyle&quot;,&quot;elbow&quot;:&quot;vertical&quot;,&quot;curved&quot;:0,&quot;rounded&quot;:0};" vertex="1" parent="aM9ryv3xv72pqoxQDRHE-1">
          <mxGeometry x="45" y="350" width="10" height="80" as="geometry" />
        </mxCell>
        <mxCell id="aM9ryv3xv72pqoxQDRHE-5" value="Java Spring Boot" style="shape=umlLifeline;perimeter=lifelinePerimeter;whiteSpace=wrap;html=1;container=0;dropTarget=0;collapsible=0;recursiveResize=0;outlineConnect=0;portConstraint=eastwest;newEdgeStyle={&quot;edgeStyle&quot;:&quot;elbowEdgeStyle&quot;,&quot;elbow&quot;:&quot;vertical&quot;,&quot;curved&quot;:0,&quot;rounded&quot;:0};" parent="1" vertex="1">
          <mxGeometry x="340" y="40" width="100" height="880" as="geometry" />
        </mxCell>
        <mxCell id="aM9ryv3xv72pqoxQDRHE-6" value="" style="html=1;points=[];perimeter=orthogonalPerimeter;outlineConnect=0;targetShapes=umlLifeline;portConstraint=eastwest;newEdgeStyle={&quot;edgeStyle&quot;:&quot;elbowEdgeStyle&quot;,&quot;elbow&quot;:&quot;vertical&quot;,&quot;curved&quot;:0,&quot;rounded&quot;:0};" parent="aM9ryv3xv72pqoxQDRHE-5" vertex="1">
          <mxGeometry x="45" y="80" width="10" height="130" as="geometry" />
        </mxCell>
        <mxCell id="i7Q7dxlkTZV9pGj74JNQ-49" value="" style="html=1;points=[[0,0,0,0,5],[0,1,0,0,-5],[1,0,0,0,5],[1,1,0,0,-5]];perimeter=orthogonalPerimeter;outlineConnect=0;targetShapes=umlLifeline;portConstraint=eastwest;newEdgeStyle={&quot;curved&quot;:0,&quot;rounded&quot;:0};" vertex="1" parent="aM9ryv3xv72pqoxQDRHE-5">
          <mxGeometry x="47.5" y="790" width="10" height="40" as="geometry" />
        </mxCell>
        <mxCell id="i7Q7dxlkTZV9pGj74JNQ-50" value="sendEmails &lt;br&gt;to filtered employee list" style="html=1;align=left;spacingLeft=2;endArrow=block;rounded=0;edgeStyle=orthogonalEdgeStyle;curved=0;rounded=0;" edge="1" target="i7Q7dxlkTZV9pGj74JNQ-49" parent="aM9ryv3xv72pqoxQDRHE-5">
          <mxGeometry relative="1" as="geometry">
            <mxPoint x="52.5" y="770" as="sourcePoint" />
            <Array as="points">
              <mxPoint x="82.5" y="800" />
            </Array>
          </mxGeometry>
        </mxCell>
        <mxCell id="aM9ryv3xv72pqoxQDRHE-7" value="POST&amp;nbsp;installation/create" style="html=1;verticalAlign=bottom;endArrow=block;edgeStyle=elbowEdgeStyle;elbow=horizontal;curved=0;rounded=0;" parent="1" source="aM9ryv3xv72pqoxQDRHE-2" target="aM9ryv3xv72pqoxQDRHE-6" edge="1">
          <mxGeometry relative="1" as="geometry">
            <mxPoint x="315" y="130" as="sourcePoint" />
            <Array as="points">
              <mxPoint x="300" y="120" />
            </Array>
            <mxPoint as="offset" />
          </mxGeometry>
        </mxCell>
        <mxCell id="i7Q7dxlkTZV9pGj74JNQ-1" value="InfluxDB" style="shape=umlLifeline;perimeter=lifelinePerimeter;whiteSpace=wrap;html=1;container=0;dropTarget=0;collapsible=0;recursiveResize=0;outlineConnect=0;portConstraint=eastwest;newEdgeStyle={&quot;edgeStyle&quot;:&quot;elbowEdgeStyle&quot;,&quot;elbow&quot;:&quot;vertical&quot;,&quot;curved&quot;:0,&quot;rounded&quot;:0};" vertex="1" parent="1">
          <mxGeometry x="520" y="40" width="100" height="880" as="geometry" />
        </mxCell>
        <mxCell id="i7Q7dxlkTZV9pGj74JNQ-31" value="" style="html=1;points=[[0,0,0,0,5],[0,1,0,0,-5],[1,0,0,0,5],[1,1,0,0,-5]];perimeter=orthogonalPerimeter;outlineConnect=0;targetShapes=umlLifeline;portConstraint=eastwest;newEdgeStyle={&quot;curved&quot;:0,&quot;rounded&quot;:0};" vertex="1" parent="i7Q7dxlkTZV9pGj74JNQ-1">
          <mxGeometry x="45" y="260" width="10" height="100" as="geometry" />
        </mxCell>
        <mxCell id="i7Q7dxlkTZV9pGj74JNQ-32" value="check the new values &lt;br&gt;in the database &lt;br&gt;for the set sensors" style="html=1;align=left;spacingLeft=2;endArrow=block;rounded=0;edgeStyle=orthogonalEdgeStyle;curved=0;rounded=0;" edge="1" target="i7Q7dxlkTZV9pGj74JNQ-31" parent="i7Q7dxlkTZV9pGj74JNQ-1">
          <mxGeometry relative="1" as="geometry">
            <mxPoint x="50" y="240" as="sourcePoint" />
            <Array as="points">
              <mxPoint x="80" y="270" />
            </Array>
          </mxGeometry>
        </mxCell>
        <mxCell id="i7Q7dxlkTZV9pGj74JNQ-43" value="" style="html=1;points=[];perimeter=orthogonalPerimeter;outlineConnect=0;targetShapes=umlLifeline;portConstraint=eastwest;newEdgeStyle={&quot;edgeStyle&quot;:&quot;elbowEdgeStyle&quot;,&quot;elbow&quot;:&quot;vertical&quot;,&quot;curved&quot;:0,&quot;rounded&quot;:0};" vertex="1" parent="i7Q7dxlkTZV9pGj74JNQ-1">
          <mxGeometry x="45" y="370" width="10" height="160" as="geometry" />
        </mxCell>
        <mxCell id="i7Q7dxlkTZV9pGj74JNQ-3" value="PostgreSQL" style="shape=umlLifeline;perimeter=lifelinePerimeter;whiteSpace=wrap;html=1;container=0;dropTarget=0;collapsible=0;recursiveResize=0;outlineConnect=0;portConstraint=eastwest;newEdgeStyle={&quot;edgeStyle&quot;:&quot;elbowEdgeStyle&quot;,&quot;elbow&quot;:&quot;vertical&quot;,&quot;curved&quot;:0,&quot;rounded&quot;:0};" vertex="1" parent="1">
          <mxGeometry x="700" y="40" width="100" height="880" as="geometry" />
        </mxCell>
        <mxCell id="i7Q7dxlkTZV9pGj74JNQ-4" value="" style="html=1;points=[];perimeter=orthogonalPerimeter;outlineConnect=0;targetShapes=umlLifeline;portConstraint=eastwest;newEdgeStyle={&quot;edgeStyle&quot;:&quot;elbowEdgeStyle&quot;,&quot;elbow&quot;:&quot;vertical&quot;,&quot;curved&quot;:0,&quot;rounded&quot;:0};" vertex="1" parent="i7Q7dxlkTZV9pGj74JNQ-3">
          <mxGeometry x="45" y="80" width="10" height="40" as="geometry" />
        </mxCell>
        <mxCell id="i7Q7dxlkTZV9pGj74JNQ-7" value="Actor" style="shape=umlActor;verticalLabelPosition=bottom;verticalAlign=top;html=1;outlineConnect=0;" vertex="1" parent="1">
          <mxGeometry x="60" y="40" width="30" height="60" as="geometry" />
        </mxCell>
        <mxCell id="i7Q7dxlkTZV9pGj74JNQ-8" value="" style="endArrow=none;dashed=1;html=1;rounded=0;exitX=0.088;exitY=1;exitDx=0;exitDy=0;exitPerimeter=0;" edge="1" parent="1" source="i7Q7dxlkTZV9pGj74JNQ-34">
          <mxGeometry width="50" height="50" relative="1" as="geometry">
            <mxPoint x="80" y="932.3999633789062" as="sourcePoint" />
            <mxPoint x="80" y="120" as="targetPoint" />
          </mxGeometry>
        </mxCell>
        <mxCell id="aM9ryv3xv72pqoxQDRHE-3" value="set up sensor" style="html=1;verticalAlign=bottom;startArrow=oval;endArrow=block;startSize=8;edgeStyle=elbowEdgeStyle;elbow=vertical;curved=0;rounded=0;exitX=1;exitY=1;exitDx=0;exitDy=0;exitPerimeter=0;" parent="1" edge="1">
          <mxGeometry relative="1" as="geometry">
            <mxPoint x="90" y="119.5" as="sourcePoint" />
            <mxPoint x="209.5" y="119.5" as="targetPoint" />
          </mxGeometry>
        </mxCell>
        <mxCell id="i7Q7dxlkTZV9pGj74JNQ-9" value="" style="endArrow=classic;html=1;rounded=0;" edge="1" parent="1" target="i7Q7dxlkTZV9pGj74JNQ-3">
          <mxGeometry width="50" height="50" relative="1" as="geometry">
            <mxPoint x="389.5" y="130" as="sourcePoint" />
            <mxPoint x="510" y="130" as="targetPoint" />
          </mxGeometry>
        </mxCell>
        <mxCell id="i7Q7dxlkTZV9pGj74JNQ-11" value="&lt;div style=&quot;text-align: center;&quot;&gt;&lt;span style=&quot;font-size: 11px; background-color: rgb(255, 255, 255);&quot;&gt;save installation&lt;/span&gt;&lt;/div&gt;" style="text;whiteSpace=wrap;html=1;" vertex="1" parent="1">
          <mxGeometry x="620" y="100" width="150" height="40" as="geometry" />
        </mxCell>
        <mxCell id="i7Q7dxlkTZV9pGj74JNQ-12" value="" style="endArrow=classic;html=1;rounded=0;dashed=1;" edge="1" parent="1" target="aM9ryv3xv72pqoxQDRHE-5">
          <mxGeometry width="50" height="50" relative="1" as="geometry">
            <mxPoint x="749.5" y="150" as="sourcePoint" />
            <mxPoint x="600" y="150" as="targetPoint" />
          </mxGeometry>
        </mxCell>
        <mxCell id="i7Q7dxlkTZV9pGj74JNQ-18" value="ifSuccessful" style="text;strokeColor=none;fillColor=none;align=left;verticalAlign=middle;spacingLeft=4;spacingRight=4;overflow=hidden;points=[[0,0.5],[1,0.5]];portConstraint=eastwest;rotatable=0;whiteSpace=wrap;html=1;" vertex="1" parent="1">
          <mxGeometry x="510" y="130" width="80" height="30" as="geometry" />
        </mxCell>
        <mxCell id="i7Q7dxlkTZV9pGj74JNQ-19" value="&lt;font style=&quot;font-size: 11px;&quot;&gt;if&amp;nbsp;ifSuccessful== true&lt;/font&gt;" style="shape=umlFrame;whiteSpace=wrap;html=1;pointerEvents=0;width=110;height=20;" vertex="1" parent="1">
          <mxGeometry x="90" y="200" width="600" height="70" as="geometry" />
        </mxCell>
        <mxCell id="i7Q7dxlkTZV9pGj74JNQ-23" value="" style="html=1;points=[];perimeter=orthogonalPerimeter;outlineConnect=0;targetShapes=umlLifeline;portConstraint=eastwest;newEdgeStyle={&quot;edgeStyle&quot;:&quot;elbowEdgeStyle&quot;,&quot;elbow&quot;:&quot;vertical&quot;,&quot;curved&quot;:0,&quot;rounded&quot;:0};" vertex="1" parent="1">
          <mxGeometry x="565" y="217.5" width="10" height="35" as="geometry" />
        </mxCell>
        <mxCell id="i7Q7dxlkTZV9pGj74JNQ-25" value="POST&amp;nbsp;building/create-check" style="html=1;verticalAlign=bottom;endArrow=block;edgeStyle=elbowEdgeStyle;elbow=horizontal;curved=0;rounded=0;" edge="1" parent="1">
          <mxGeometry x="0.0058" relative="1" as="geometry">
            <mxPoint x="214" y="232" as="sourcePoint" />
            <Array as="points">
              <mxPoint x="295" y="232" />
            </Array>
            <mxPoint x="385" y="232" as="targetPoint" />
            <mxPoint as="offset" />
          </mxGeometry>
        </mxCell>
        <mxCell id="i7Q7dxlkTZV9pGj74JNQ-26" value="" style="html=1;verticalAlign=bottom;endArrow=block;edgeStyle=elbowEdgeStyle;elbow=horizontal;curved=0;rounded=0;" edge="1" parent="1">
          <mxGeometry x="0.1228" y="20" relative="1" as="geometry">
            <mxPoint x="395" y="240" as="sourcePoint" />
            <Array as="points">
              <mxPoint x="476" y="240" />
            </Array>
            <mxPoint x="566" y="240" as="targetPoint" />
            <mxPoint as="offset" />
          </mxGeometry>
        </mxCell>
        <mxCell id="i7Q7dxlkTZV9pGj74JNQ-30" value="&lt;span style=&quot;color: rgb(0, 0, 0); font-family: Helvetica; font-size: 11px; font-style: normal; font-variant-ligatures: normal; font-variant-caps: normal; font-weight: 400; letter-spacing: normal; orphans: 2; text-align: center; text-indent: 0px; text-transform: none; widows: 2; word-spacing: 0px; -webkit-text-stroke-width: 0px; background-color: rgb(255, 255, 255); text-decoration-thickness: initial; text-decoration-style: initial; text-decoration-color: initial; float: none; display: inline !important;&quot;&gt;createCheck&lt;/span&gt;" style="text;whiteSpace=wrap;html=1;" vertex="1" parent="1">
          <mxGeometry x="440" y="212.5" width="140" height="40" as="geometry" />
        </mxCell>
        <mxCell id="i7Q7dxlkTZV9pGj74JNQ-33" value="Scheduled every 1 minute" style="shape=note;whiteSpace=wrap;html=1;backgroundOutline=1;darkOpacity=0.05;" vertex="1" parent="1">
          <mxGeometry x="590" y="320" width="150" height="30" as="geometry" />
        </mxCell>
        <mxCell id="i7Q7dxlkTZV9pGj74JNQ-34" value="&lt;font style=&quot;font-size: 11px;&quot;&gt;If value exceeds set threshold&lt;/font&gt;" style="shape=umlFrame;whiteSpace=wrap;html=1;pointerEvents=0;width=60;height=70;" vertex="1" parent="1">
          <mxGeometry x="10" y="367.5" width="800" height="552.5" as="geometry" />
        </mxCell>
        <mxCell id="i7Q7dxlkTZV9pGj74JNQ-35" value="" style="html=1;points=[];perimeter=orthogonalPerimeter;outlineConnect=0;targetShapes=umlLifeline;portConstraint=eastwest;newEdgeStyle={&quot;edgeStyle&quot;:&quot;elbowEdgeStyle&quot;,&quot;elbow&quot;:&quot;vertical&quot;,&quot;curved&quot;:0,&quot;rounded&quot;:0};" vertex="1" parent="1">
          <mxGeometry x="385" y="375" width="10" height="405" as="geometry" />
        </mxCell>
        <mxCell id="i7Q7dxlkTZV9pGj74JNQ-36" value="" style="html=1;verticalAlign=bottom;endArrow=block;elbow=horizontal;rounded=0;" edge="1" parent="1" target="i7Q7dxlkTZV9pGj74JNQ-35">
          <mxGeometry relative="1" as="geometry">
            <mxPoint x="565" y="390" as="sourcePoint" />
            <mxPoint x="445" y="390" as="targetPoint" />
            <mxPoint as="offset" />
          </mxGeometry>
        </mxCell>
        <mxCell id="i7Q7dxlkTZV9pGj74JNQ-37" value="employee/info" style="text;html=1;align=center;verticalAlign=middle;resizable=0;points=[];autosize=1;strokeColor=none;fillColor=none;" vertex="1" parent="1">
          <mxGeometry x="430" y="364" width="100" height="30" as="geometry" />
        </mxCell>
        <mxCell id="i7Q7dxlkTZV9pGj74JNQ-38" value="webSocketSendMessage" style="text;html=1;align=center;verticalAlign=middle;resizable=0;points=[];autosize=1;strokeColor=none;fillColor=none;" vertex="1" parent="1">
          <mxGeometry x="225" y="394" width="160" height="30" as="geometry" />
        </mxCell>
        <mxCell id="i7Q7dxlkTZV9pGj74JNQ-40" value="" style="html=1;verticalAlign=bottom;endArrow=block;edgeStyle=elbowEdgeStyle;elbow=horizontal;curved=0;rounded=0;entryX=0.5;entryY=0.811;entryDx=0;entryDy=0;entryPerimeter=0;" edge="1" parent="1">
          <mxGeometry relative="1" as="geometry">
            <mxPoint x="210" y="430" as="sourcePoint" />
            <Array as="points" />
            <mxPoint x="80" y="430" as="targetPoint" />
            <mxPoint as="offset" />
          </mxGeometry>
        </mxCell>
        <mxCell id="i7Q7dxlkTZV9pGj74JNQ-41" value="toast message" style="text;html=1;align=center;verticalAlign=middle;resizable=0;points=[];autosize=1;strokeColor=none;fillColor=none;" vertex="1" parent="1">
          <mxGeometry x="90" y="404" width="100" height="30" as="geometry" />
        </mxCell>
        <mxCell id="i7Q7dxlkTZV9pGj74JNQ-44" value="" style="html=1;verticalAlign=bottom;endArrow=block;elbow=horizontal;rounded=0;" edge="1" parent="1" target="i7Q7dxlkTZV9pGj74JNQ-43">
          <mxGeometry relative="1" as="geometry">
            <mxPoint x="395" y="430" as="sourcePoint" />
            <mxPoint x="490" y="430" as="targetPoint" />
            <mxPoint as="offset" />
          </mxGeometry>
        </mxCell>
        <mxCell id="i7Q7dxlkTZV9pGj74JNQ-45" value="getIdEmployeesInside" style="text;html=1;align=center;verticalAlign=middle;resizable=0;points=[];autosize=1;strokeColor=none;fillColor=none;" vertex="1" parent="1">
          <mxGeometry x="410" y="404" width="140" height="30" as="geometry" />
        </mxCell>
        <mxCell id="i7Q7dxlkTZV9pGj74JNQ-46" value="" style="endArrow=classic;html=1;rounded=0;dashed=1;" edge="1" parent="1">
          <mxGeometry width="50" height="50" relative="1" as="geometry">
            <mxPoint x="565" y="559" as="sourcePoint" />
            <mxPoint x="395" y="559" as="targetPoint" />
          </mxGeometry>
        </mxCell>
        <mxCell id="i7Q7dxlkTZV9pGj74JNQ-47" value="employee list" style="text;whiteSpace=wrap;html=1;" vertex="1" parent="1">
          <mxGeometry x="450" y="539" width="80" height="20" as="geometry" />
        </mxCell>
        <mxCell id="i7Q7dxlkTZV9pGj74JNQ-48" value="" style="html=1;verticalAlign=bottom;endArrow=block;elbow=horizontal;rounded=0;" edge="1" parent="1">
          <mxGeometry relative="1" as="geometry">
            <mxPoint x="385" y="418.5" as="sourcePoint" />
            <mxPoint x="215" y="418.5" as="targetPoint" />
            <mxPoint as="offset" />
          </mxGeometry>
        </mxCell>
        <mxCell id="i7Q7dxlkTZV9pGj74JNQ-51" value="" style="html=1;points=[[0,0,0,0,5],[0,1,0,0,-5],[1,0,0,0,5],[1,1,0,0,-5]];perimeter=orthogonalPerimeter;outlineConnect=0;targetShapes=umlLifeline;portConstraint=eastwest;newEdgeStyle={&quot;curved&quot;:0,&quot;rounded&quot;:0};" vertex="1" parent="1">
          <mxGeometry x="745" y="460" width="10" height="70" as="geometry" />
        </mxCell>
        <mxCell id="i7Q7dxlkTZV9pGj74JNQ-52" value="" style="html=1;verticalAlign=bottom;endArrow=block;elbow=horizontal;rounded=0;" edge="1" parent="1">
          <mxGeometry relative="1" as="geometry">
            <mxPoint x="575" y="490" as="sourcePoint" />
            <mxPoint x="745" y="490" as="targetPoint" />
            <mxPoint as="offset" />
          </mxGeometry>
        </mxCell>
        <mxCell id="i7Q7dxlkTZV9pGj74JNQ-53" value="findEmployeeById" style="text;html=1;align=center;verticalAlign=middle;resizable=0;points=[];autosize=1;strokeColor=none;fillColor=none;" vertex="1" parent="1">
          <mxGeometry x="600" y="465" width="120" height="30" as="geometry" />
        </mxCell>
        <mxCell id="i7Q7dxlkTZV9pGj74JNQ-54" value="" style="endArrow=classic;html=1;rounded=0;dashed=1;" edge="1" parent="1">
          <mxGeometry width="50" height="50" relative="1" as="geometry">
            <mxPoint x="745" y="519.5" as="sourcePoint" />
            <mxPoint x="575" y="519.5" as="targetPoint" />
          </mxGeometry>
        </mxCell>
        <mxCell id="i7Q7dxlkTZV9pGj74JNQ-55" value="employee" style="text;whiteSpace=wrap;html=1;" vertex="1" parent="1">
          <mxGeometry x="625" y="495" width="80" height="20" as="geometry" />
        </mxCell>
        <mxCell id="i7Q7dxlkTZV9pGj74JNQ-58" value="for each employee inside the building" style="shape=umlFrame;whiteSpace=wrap;html=1;pointerEvents=0;width=60;height=70;" vertex="1" parent="1">
          <mxGeometry x="490" y="450" width="300" height="90" as="geometry" />
        </mxCell>
        <mxCell id="i7Q7dxlkTZV9pGj74JNQ-60" value="if value&amp;gt;maxThreshold" style="shape=umlFrame;whiteSpace=wrap;html=1;pointerEvents=0;width=145;height=20;" vertex="1" parent="1">
          <mxGeometry x="225" y="570" width="325" height="100" as="geometry" />
        </mxCell>
        <mxCell id="i7Q7dxlkTZV9pGj74JNQ-61" value="if value&amp;lt;minThreshold" style="shape=umlFrame;whiteSpace=wrap;html=1;pointerEvents=0;width=145;height=20;" vertex="1" parent="1">
          <mxGeometry x="225" y="670" width="325" height="100" as="geometry" />
        </mxCell>
        <mxCell id="i7Q7dxlkTZV9pGj74JNQ-67" value="" style="html=1;points=[[0,0,0,0,5],[0,1,0,0,-5],[1,0,0,0,5],[1,1,0,0,-5]];perimeter=orthogonalPerimeter;outlineConnect=0;targetShapes=umlLifeline;portConstraint=eastwest;newEdgeStyle={&quot;curved&quot;:0,&quot;rounded&quot;:0};" vertex="1" parent="1">
          <mxGeometry x="390" y="610" width="10" height="40" as="geometry" />
        </mxCell>
        <mxCell id="i7Q7dxlkTZV9pGj74JNQ-68" value="isMaintenanceWorker or&lt;br&gt;isMatchingFloor" style="html=1;align=left;spacingLeft=2;endArrow=block;rounded=0;edgeStyle=orthogonalEdgeStyle;curved=0;rounded=0;" edge="1" target="i7Q7dxlkTZV9pGj74JNQ-67" parent="1">
          <mxGeometry relative="1" as="geometry">
            <mxPoint x="395" y="590" as="sourcePoint" />
            <Array as="points">
              <mxPoint x="425" y="620" />
            </Array>
          </mxGeometry>
        </mxCell>
        <mxCell id="i7Q7dxlkTZV9pGj74JNQ-70" value="" style="html=1;points=[[0,0,0,0,5],[0,1,0,0,-5],[1,0,0,0,5],[1,1,0,0,-5]];perimeter=orthogonalPerimeter;outlineConnect=0;targetShapes=umlLifeline;portConstraint=eastwest;newEdgeStyle={&quot;curved&quot;:0,&quot;rounded&quot;:0};" vertex="1" parent="1">
          <mxGeometry x="390" y="710" width="10" height="40" as="geometry" />
        </mxCell>
        <mxCell id="i7Q7dxlkTZV9pGj74JNQ-71" value="isMaintenanceWorker or&lt;br&gt;isMatchingOffice" style="html=1;align=left;spacingLeft=2;endArrow=block;rounded=0;edgeStyle=orthogonalEdgeStyle;curved=0;rounded=0;" edge="1" parent="1" target="i7Q7dxlkTZV9pGj74JNQ-70">
          <mxGeometry relative="1" as="geometry">
            <mxPoint x="395" y="690" as="sourcePoint" />
            <Array as="points">
              <mxPoint x="425" y="720" />
            </Array>
          </mxGeometry>
        </mxCell>
        <mxCell id="i7Q7dxlkTZV9pGj74JNQ-72" value="filters employee list" style="shape=note;whiteSpace=wrap;html=1;backgroundOutline=1;darkOpacity=0.05;" vertex="1" parent="1">
          <mxGeometry x="510" y="620" width="55" height="70" as="geometry" />
        </mxCell>
        <mxCell id="i7Q7dxlkTZV9pGj74JNQ-75" value="" style="endArrow=classic;html=1;rounded=0;dashed=1;" edge="1" parent="1">
          <mxGeometry width="50" height="50" relative="1" as="geometry">
            <mxPoint x="385" y="160" as="sourcePoint" />
            <mxPoint x="210" y="160" as="targetPoint" />
          </mxGeometry>
        </mxCell>
        <mxCell id="i7Q7dxlkTZV9pGj74JNQ-76" value="ifSuccessful" style="text;strokeColor=none;fillColor=none;align=left;verticalAlign=middle;spacingLeft=4;spacingRight=4;overflow=hidden;points=[[0,0.5],[1,0.5]];portConstraint=eastwest;rotatable=0;whiteSpace=wrap;html=1;" vertex="1" parent="1">
          <mxGeometry x="260" y="140" width="80" height="30" as="geometry" />
        </mxCell>
        <mxCell id="i7Q7dxlkTZV9pGj74JNQ-77" value="" style="html=1;verticalAlign=bottom;endArrow=block;edgeStyle=elbowEdgeStyle;elbow=horizontal;curved=0;rounded=0;" edge="1" parent="1">
          <mxGeometry relative="1" as="geometry">
            <mxPoint x="205" y="170" as="sourcePoint" />
            <Array as="points" />
            <mxPoint x="80" y="170" as="targetPoint" />
            <mxPoint as="offset" />
          </mxGeometry>
        </mxCell>
        <mxCell id="i7Q7dxlkTZV9pGj74JNQ-78" value="toast message" style="text;html=1;align=center;verticalAlign=middle;resizable=0;points=[];autosize=1;strokeColor=none;fillColor=none;" vertex="1" parent="1">
          <mxGeometry x="100" y="150" width="100" height="30" as="geometry" />
        </mxCell>
      </root>
    </mxGraphModel>
  </diagram>
</mxfile>
